# xmcd CD database file
#
# Track frame offsets:
#	150
#	16380
#	36199
#	63742
#	88906
#	112402
#	130447
#	143554
#	164426
#	187403
#	207586
#	227815
#
# Disc length: 3438 seconds
#
# Revision: 0
# Processed by: cddbd v1.5.2PL0 Copyright (c) Steve Scherf et al.
# Submitted via: CDex 1.51
#
DISCID=c00d6c0c
DTITLE=Jon T Bone Taylor's Bop Brothers - And Sisters
DYEAR=2000
DGENRE=Blues
TTITLE0=That's The Stuff You Got To Watch (Ft Ruby Turner)
TTITLE1=Missing You
TTITLE2=Equal Opportunitiy (Ft Taka Boom)
TTITLE3=Try
TTITLE4=Grease Piece
TTITLE5=You Made Me Cry
TTITLE6=Suage Pie (Ft Dana Gillespie)
TTITLE7=Got The Facts
TTITLE8=Blue Shift (Comin' At Ya)
TTITLE9=Just Like Fish (Ft Deiltra Farr)
TTITLE10=(if Lovin' You Is Wrong) I Don't Want To Be Right (Ft Connie Lush)
TTITLE11=Suzy And Georgia
EXTD=YEAR: 2000
EXTT0=
EXTT1=
EXTT2=
EXTT3=
EXTT4=
EXTT5=
EXTT6=
EXTT7=
EXTT8=
EXTT9=
EXTT10=
EXTT11=
PLAYORDER=
